# xmcd
#
# Track frame offsets:
#	150
#	16528
#	34103
#	48146
#	62313
#	75712
#	91017
#	104768
#	118464
#	136052
#	147839
#	162552
#	178881
#	195281
#	212502
#
# Disc length: 3062 seconds
#
# Revision: 1
# Processed by: cddbd v1.5.2PL0 Copyright (c) Steve Scherf et al.
# Submitted via: EZCDAudioConverter 2.1.1.1
#
DISCID=c00bf40f
DTITLE=디스크지누 - 1990
DYEAR=99
DGENRE=dance
TTITLE0=엄정화 - 3자대면
TTITLE1=아무로나미에 - 스탑더뮤직
TTITLE2=페볼리트포에버 - 디스이즈마이럽포유
TTITLE3=최진희 - 그여자가가는곳은
TTITLE4=팝시 - 라티노러버
TTITLE5=라 크림 - 세이굿바이
TTITLE6=페이볼리트포에버 - 디스이즈마이럽포유
TTITLE7=미상 - 물방울테크노
TTITLE8=뉴톤 - 돈워리
TTITLE9=심수봉 - 미워요
TTITLE10=설운도 - 쌈바의여인
TTITLE11=엄정화 - 배반의장미
TTITLE12=신철 - 대찬인생
TTITLE13=박미경 - 이유같지않은이유
TTITLE14=아쿠아 - 캔디맨
EXTD=
EXTT0=
EXTT1=
EXTT2=
EXTT3=
EXTT4=
EXTT5=
EXTT6=
EXTT7=
EXTT8=
EXTT9=
EXTT10=
EXTT11=
EXTT12=
EXTT13=
EXTT14=
PLAYORDER=
